<svg width="120" height="40" viewBox="0 0 120 40" fill="none" xmlns="http://www.w3.org/2000/svg">
<g clip-path="url(#clip0_12743_62891)">
<path d="M110.442 -0.00441712H9.55949C9.19176 -0.00441712 8.82845 -0.00441712 8.46169 -0.00241712C8.15468 -0.000417119 7.85012 0.00539288 7.54016 0.0102829C6.86679 0.0181847 6.195 0.0772591 5.53064 0.186993C4.8672 0.299116 4.22455 0.510499 3.62442 0.813993C3.02502 1.12005 2.47733 1.51775 2.00122 1.99265C1.52262 2.46622 1.12366 3.0136 0.819697 3.61374C0.514894 4.21269 0.303543 4.85452 0.192943 5.51706C0.0812909 6.17877 0.0212101 6.8481 0.0132394 7.51906C0.00393335 7.82566 0.0029506 8.13328 -0.00195312 8.43992V31.5542C0.0029506 31.8647 0.00393335 32.1655 0.0132394 32.4761C0.0212125 33.147 0.0812933 33.8163 0.192943 34.478C0.303237 35.1409 0.514601 35.7831 0.819697 36.3823C1.12352 36.9805 1.52254 37.5257 2.00122 37.9966C2.47553 38.4736 3.02357 38.8716 3.62442 39.1753C4.22455 39.4796 4.86713 39.6922 5.53064 39.8061C6.19511 39.9149 6.86683 39.974 7.54016 39.9829C7.85012 39.9897 8.15468 39.9936 8.46169 39.9936C8.82844 39.9956 9.19178 39.9956 9.55949 39.9956H110.442C110.802 39.9956 111.169 39.9956 111.529 39.9936C111.835 39.9936 112.148 39.9897 112.454 39.9829C113.126 39.9745 113.796 39.9154 114.459 39.8061C115.125 39.6914 115.77 39.4788 116.373 39.1753C116.973 38.8714 117.521 38.4734 117.994 37.9966C118.472 37.5238 118.872 36.979 119.179 36.3823C119.482 35.7827 119.692 35.1405 119.8 34.478C119.912 33.8162 119.974 33.1471 119.986 32.4761C119.99 32.1655 119.99 31.8647 119.99 31.5542C119.998 31.1909 119.998 30.8296 119.998 30.4604V9.53171C119.998 9.1655 119.998 8.80222 119.99 8.43992C119.99 8.13328 119.99 7.82566 119.986 7.51902C119.974 6.84801 119.912 6.17882 119.8 5.51702C119.691 4.85486 119.482 4.21309 119.179 3.6137C118.56 2.41078 117.579 1.43161 116.373 0.813903C115.77 0.51115 115.125 0.299823 114.459 0.186903C113.796 0.0766857 113.126 0.0175906 112.454 0.0101429C112.148 0.00526288 111.835 -0.000597119 111.529 -0.00254712C111.169 -0.00454712 110.802 -0.00454712 110.442 -0.00454712V-0.00441712Z" fill="#A6A6A6"/>
<path d="M8.46612 39.1204C8.16059 39.1204 7.86243 39.1165 7.5593 39.1097C6.93132 39.1015 6.30481 39.047 5.68491 38.9466C5.10688 38.8473 4.54693 38.6626 4.02352 38.3987C3.50491 38.1369 3.03189 37.7936 2.62259 37.3821C2.20737 36.9753 1.86168 36.5036 1.59922 35.9856C1.33387 35.4642 1.15023 34.9053 1.0547 34.3284C0.951531 33.7085 0.895715 33.0817 0.887728 32.4534C0.88137 32.2425 0.873047 31.5403 0.873047 31.5403V8.4397C0.873047 8.4397 0.881912 7.74829 0.887778 7.54516C0.895425 6.91784 0.950917 6.29202 1.05377 5.67309C1.14948 5.09461 1.33326 4.53411 1.59876 4.01099C1.86026 3.49331 2.20403 3.02122 2.61675 2.61304C3.02901 2.20098 3.50353 1.85597 4.02303 1.59057C4.54523 1.32745 5.10413 1.14409 5.68099 1.04663C6.30293 0.945197 6.93161 0.890357 7.56176 0.882571L8.46662 0.870361H111.524L112.439 0.883061C113.064 0.890461 113.687 0.944811 114.303 1.04565C114.886 1.14434 115.45 1.32898 115.979 1.5935C117.019 2.12835 117.866 2.97452 118.4 4.01343C118.662 4.53294 118.843 5.08887 118.937 5.66235C119.041 6.28635 119.099 6.9171 119.111 7.54956C119.114 7.83276 119.114 8.13696 119.114 8.4397C119.122 8.8147 119.122 9.17163 119.122 9.53149V30.4602C119.122 30.8235 119.122 31.178 119.114 31.5354C119.114 31.8606 119.114 32.1585 119.11 32.4651C119.099 33.0862 119.041 33.7057 118.939 34.3186C118.845 34.8996 118.663 35.4629 118.397 35.9886C118.133 36.501 117.789 36.9686 117.379 37.3743C116.969 37.788 116.495 38.1333 115.976 38.3968C115.449 38.6628 114.885 38.8481 114.303 38.9466C113.683 39.0475 113.057 39.102 112.429 39.1097C112.135 39.1165 111.827 39.1204 111.529 39.1204L110.442 39.1224L8.46612 39.1204Z" fill="black"/>
<path d="M24.8379 20.3019C24.8487 19.4673 25.071 18.6489 25.4842 17.9229C25.8974 17.197 26.488 16.587 27.2011 16.1499C26.748 15.5047 26.1504 14.9738 25.4557 14.5992C24.7609 14.2247 23.9881 14.0168 23.1987 13.9922C21.5147 13.8159 19.8822 14.997 19.0241 14.997C18.1494 14.997 16.8282 14.0097 15.4055 14.0389C14.4852 14.0685 13.5884 14.3354 12.8023 14.8134C12.0162 15.2915 11.3677 15.9644 10.92 16.7667C8.98056 20.1152 10.4272 25.0362 12.285 27.7428C13.2145 29.0682 14.3008 30.5486 15.7223 30.4961C17.1132 30.4386 17.6327 29.6116 19.3117 29.6116C20.9751 29.6116 21.4625 30.4961 22.9128 30.4627C24.4054 30.4386 25.3457 29.1315 26.2426 27.7936C26.9105 26.8492 27.4244 25.8055 27.7653 24.7011C26.8982 24.3354 26.1582 23.7232 25.6376 22.9409C25.117 22.1586 24.8389 21.2408 24.8379 20.3019Z" fill="white"/>
<path d="M22.0975 12.2114C22.9113 11.2372 23.3122 9.985 23.2151 8.72076C21.9718 8.85098 20.8233 9.44354 19.9985 10.3804C19.5953 10.838 19.2864 11.3705 19.0896 11.9472C18.8928 12.524 18.8119 13.1338 18.8516 13.7418C19.4735 13.7481 20.0887 13.6137 20.651 13.3486C21.2132 13.0836 21.7078 12.6947 22.0975 12.2114Z" fill="white"/>
<path d="M42.4196 27.1377H37.6729L36.533 30.4941H34.5225L39.0184 18.0761H41.1073L45.6033 30.4941H43.5585L42.4196 27.1377ZM38.1645 25.5888H41.927L40.0722 20.1416H40.0203L38.1645 25.5888Z" fill="white"/>
<path d="M55.313 25.9702C55.313 28.7836 53.803 30.5912 51.5241 30.5912C50.9468 30.6214 50.3727 30.4888 49.8675 30.2086C49.3623 29.9285 48.9464 29.5121 48.6675 29.0072H48.6244V33.4916H46.7607V21.4428H48.5647V22.9487H48.5989C48.8907 22.4462 49.3136 22.032 49.8227 21.7502C50.3317 21.4683 50.9079 21.3294 51.4898 21.3481C53.7941 21.3481 55.313 23.1645 55.313 25.9702ZM53.3975 25.9702C53.3975 24.1372 52.4476 22.9321 50.9982 22.9321C49.5743 22.9321 48.6165 24.1625 48.6165 25.9702C48.6165 27.7944 49.5743 29.0161 50.9982 29.0161C52.4476 29.0161 53.3975 27.8198 53.3975 25.9702Z" fill="white"/>
<path d="M65.3052 25.9675C65.3052 28.7809 63.7951 30.5886 61.5163 30.5886C60.939 30.6187 60.3649 30.4861 59.8597 30.2059C59.3545 29.9258 58.9386 29.5094 58.6597 29.0046H58.6165V33.4889H56.7529V21.4401H58.5568V22.946H58.5911C58.8828 22.4435 59.3058 22.0293 59.8148 21.7475C60.3239 21.4656 60.9 21.3267 61.482 21.3454C63.7863 21.3454 65.3052 23.1618 65.3052 25.9675ZM63.3897 25.9675C63.3897 24.1345 62.4398 22.9294 60.9904 22.9294C59.5665 22.9294 58.6087 24.1598 58.6087 25.9675C58.6087 27.7917 59.5665 29.0134 60.9904 29.0134C62.4398 29.0134 63.3897 27.8171 63.3897 25.9675H63.3897Z" fill="white"/>
<path d="M71.9116 27.035C72.0497 28.2664 73.2494 29.075 74.8887 29.075C76.4595 29.075 77.5896 28.2664 77.5896 27.156C77.5896 26.1921 76.908 25.615 75.2941 25.2195L73.6802 24.8318C71.3936 24.281 70.332 23.2146 70.332 21.4841C70.332 19.3416 72.2044 17.8699 74.8632 17.8699C77.4946 17.8699 79.2985 19.3416 79.3592 21.4841H77.478C77.3653 20.2449 76.338 19.4968 74.8368 19.4968C73.3355 19.4968 72.3082 20.2537 72.3082 21.3552C72.3082 22.2332 72.9644 22.7498 74.5694 23.1452L75.9414 23.4812C78.4964 24.0837 79.558 25.1072 79.558 26.9236C79.558 29.2468 77.7022 30.7019 74.7506 30.7019C71.989 30.7019 70.1244 29.281 70.0039 27.0349L71.9116 27.035Z" fill="white"/>
<path d="M83.5792 19.2979V21.4405H85.3058V22.9122H83.5792V27.9034C83.5792 28.6788 83.9249 29.0401 84.6839 29.0401C84.8889 29.0366 85.0935 29.0222 85.2969 28.9971V30.46C84.9557 30.5236 84.6089 30.5524 84.2618 30.546C82.4237 30.546 81.7068 29.8575 81.7068 28.1016V22.9122H80.3867V21.4405H81.7068V19.2979H83.5792Z" fill="white"/>
<path d="M86.3047 25.9687C86.3047 23.1201 87.9871 21.33 90.6107 21.33C93.243 21.33 94.9177 23.12 94.9177 25.9687C94.9177 28.8252 93.2519 30.6074 90.6107 30.6074C87.9704 30.6074 86.3047 28.8252 86.3047 25.9687ZM93.0188 25.9687C93.0188 24.0146 92.1208 22.8613 90.6107 22.8613C89.1006 22.8613 88.2035 24.0234 88.2035 25.9687C88.2035 27.9306 89.1006 29.0752 90.6107 29.0752C92.1208 29.0752 93.0187 27.9306 93.0187 25.9687H93.0188Z" fill="white"/>
<path d="M96.4541 21.4427H98.2315V22.9837H98.2747C98.3949 22.5024 98.6777 22.0771 99.0754 21.7792C99.4731 21.4813 99.9615 21.3291 100.459 21.348C100.673 21.3472 100.887 21.3705 101.097 21.4173V23.1556C100.826 23.073 100.543 23.035 100.26 23.0433C99.9889 23.0323 99.719 23.0799 99.4685 23.1828C99.2179 23.2857 98.9927 23.4415 98.8082 23.6393C98.6237 23.8372 98.4844 24.0726 98.3997 24.3293C98.315 24.5859 98.2871 24.8578 98.3177 25.1263V30.4964H96.4541L96.4541 21.4427Z" fill="white"/>
<path d="M109.688 27.8359C109.437 29.4795 107.832 30.6074 105.779 30.6074C103.137 30.6074 101.498 28.8427 101.498 26.0117C101.498 23.1718 103.146 21.33 105.7 21.33C108.212 21.33 109.792 23.0507 109.792 25.7959V26.4326H103.379V26.5449C103.35 26.8781 103.392 27.2138 103.502 27.5296C103.613 27.8454 103.789 28.1342 104.02 28.3768C104.251 28.6193 104.531 28.8101 104.842 28.9364C105.152 29.0627 105.486 29.1216 105.822 29.1093C106.262 29.1505 106.704 29.0488 107.082 28.8193C107.46 28.5899 107.753 28.245 107.918 27.8359L109.688 27.8359ZM103.388 25.1338H107.927C107.944 24.8342 107.898 24.5343 107.793 24.2531C107.688 23.9719 107.526 23.7154 107.317 23.4996C107.108 23.2839 106.857 23.1135 106.578 22.9993C106.3 22.8851 106.001 22.8295 105.7 22.8359C105.397 22.8341 105.096 22.8922 104.815 23.007C104.534 23.1217 104.279 23.2908 104.064 23.5044C103.849 23.7181 103.679 23.972 103.563 24.2517C103.447 24.5313 103.387 24.8311 103.388 25.1338V25.1338Z" fill="white"/>
<path d="M37.9328 8.72973C38.3235 8.70177 38.7156 8.76063 39.0807 8.90207C39.4458 9.0435 39.7749 9.26398 40.0443 9.5476C40.3136 9.83123 40.5165 10.1709 40.6382 10.5422C40.76 10.9135 40.7976 11.3071 40.7483 11.6946C40.7483 13.6008 39.7151 14.6966 37.9328 14.6966H35.7715V8.72973H37.9328ZM36.7008 13.8527H37.829C38.1082 13.8694 38.3876 13.8237 38.6468 13.7191C38.9061 13.6145 39.1387 13.4535 39.3277 13.248C39.5168 13.0424 39.6574 12.7974 39.7395 12.5308C39.8216 12.2642 39.8431 11.9827 39.8023 11.7067C39.8401 11.4319 39.8165 11.1521 39.7331 10.8875C39.6498 10.6228 39.5088 10.3798 39.3202 10.1759C39.1316 9.97194 38.9001 9.81213 38.6423 9.70789C38.3845 9.60365 38.1068 9.55757 37.829 9.57294H36.7008V13.8527Z" fill="white"/>
<path d="M41.7982 12.4419C41.7698 12.146 41.8037 11.8474 41.8978 11.5653C41.9919 11.2833 42.1441 11.0239 42.3446 10.8039C42.5451 10.5839 42.7895 10.4082 43.0621 10.2879C43.3347 10.1676 43.6296 10.1055 43.9277 10.1055C44.2258 10.1055 44.5206 10.1676 44.7932 10.2879C45.0658 10.4082 45.3102 10.5839 45.5107 10.8039C45.7112 11.0239 45.8634 11.2833 45.9575 11.5653C46.0516 11.8474 46.0855 12.146 46.0571 12.4419C46.0861 12.7381 46.0525 13.0371 45.9587 13.3196C45.8648 13.6021 45.7127 13.8619 45.5122 14.0824C45.3116 14.3028 45.067 14.4789 44.7942 14.5994C44.5213 14.72 44.2261 14.7822 43.9277 14.7822C43.6292 14.7822 43.334 14.72 43.0612 14.5994C42.7883 14.4789 42.5437 14.3028 42.3431 14.0824C42.1426 13.8619 41.9905 13.6021 41.8966 13.3196C41.8028 13.0371 41.7692 12.7381 41.7982 12.4419ZM45.1405 12.4419C45.1405 11.4658 44.7008 10.895 43.9291 10.895C43.1545 10.895 42.7187 11.4658 42.7187 12.4419C42.7187 13.4258 43.1545 13.9922 43.9291 13.9922C44.7008 13.9922 45.1405 13.4219 45.1405 12.4419H45.1405Z" fill="white"/>
<path d="M51.7172 14.6946H50.7927L49.8594 11.3781H49.7889L48.8596 14.6946H47.9439L46.6992 10.1916H47.6031L48.412 13.6276H48.4786L49.407 10.1916H50.2619L51.1903 13.6276H51.2608L52.0658 10.1916H52.957L51.7172 14.6946Z" fill="white"/>
<path d="M54.0039 10.1918H54.8618V10.9072H54.9284C55.0413 10.6503 55.2319 10.4349 55.4734 10.2911C55.715 10.1473 55.9955 10.0822 56.2759 10.1049C56.4956 10.0885 56.7162 10.1215 56.9214 10.2016C57.1266 10.2817 57.311 10.4068 57.4611 10.5676C57.6113 10.7285 57.7231 10.9209 57.7885 11.1308C57.8539 11.3406 57.8711 11.5624 57.8389 11.7797V14.6947H56.9477V12.0029C56.9477 11.2793 56.6324 10.9194 55.9733 10.9194C55.8241 10.9125 55.6752 10.9378 55.5368 10.9936C55.3983 11.0494 55.2736 11.1345 55.1712 11.2428C55.0688 11.3512 54.9911 11.4804 54.9434 11.6215C54.8958 11.7627 54.8793 11.9124 54.8951 12.0605V14.6948H54.0039L54.0039 10.1918Z" fill="white"/>
<path d="M59.2598 8.43521H60.1509V14.696H59.2598V8.43521Z" fill="white"/>
<path d="M61.3909 12.442C61.3625 12.146 61.3965 11.8474 61.4906 11.5654C61.5848 11.2833 61.737 11.0239 61.9375 10.8039C62.138 10.584 62.3824 10.4082 62.6551 10.2879C62.9277 10.1676 63.2225 10.1055 63.5207 10.1055C63.8188 10.1055 64.1136 10.1676 64.3862 10.2879C64.6589 10.4082 64.9033 10.584 65.1038 10.8039C65.3043 11.0239 65.4565 11.2833 65.5507 11.5654C65.6448 11.8474 65.6788 12.146 65.6504 12.442C65.6793 12.7382 65.6457 13.0372 65.5518 13.3197C65.4579 13.6022 65.3058 13.862 65.1052 14.0824C64.9047 14.3029 64.6601 14.479 64.3872 14.5995C64.1143 14.72 63.8191 14.7823 63.5207 14.7823C63.2222 14.7823 62.927 14.72 62.6541 14.5995C62.3812 14.479 62.1366 14.3029 61.9361 14.0824C61.7355 13.862 61.5834 13.6022 61.4895 13.3197C61.3956 13.0372 61.362 12.7382 61.3909 12.442ZM64.7333 12.442C64.7333 11.4659 64.2936 10.8951 63.5219 10.8951C62.7472 10.8951 62.3115 11.4659 62.3115 12.442C62.3115 13.4259 62.7473 13.9923 63.5219 13.9923C64.2936 13.9922 64.7333 13.4219 64.7333 12.442H64.7333Z" fill="white"/>
<path d="M66.5869 13.4219C66.5869 12.6114 67.1921 12.1441 68.2664 12.0777L69.4896 12.0074V11.6187C69.4896 11.1431 69.1742 10.8745 68.5651 10.8745C68.0676 10.8745 67.7229 11.0567 67.624 11.375H66.7612C66.8523 10.6016 67.5819 10.1055 68.6062 10.1055C69.7383 10.1055 70.3768 10.6675 70.3768 11.6187V14.6953H69.519V14.0625H69.4484C69.3053 14.2895 69.1044 14.4746 68.8661 14.5988C68.6278 14.723 68.3607 14.7819 68.0921 14.7695C67.9025 14.7892 67.7109 14.769 67.5297 14.7103C67.3484 14.6516 67.1815 14.5557 67.0397 14.4287C66.8979 14.3018 66.7843 14.1466 66.7063 13.9732C66.6283 13.7997 66.5877 13.612 66.5869 13.4219ZM69.4896 13.0371V12.6607L68.3869 12.731C67.765 12.7725 67.483 12.9834 67.483 13.3804C67.483 13.7857 67.8355 14.0215 68.3203 14.0215C68.4624 14.0358 68.6058 14.0215 68.7422 13.9794C68.8786 13.9374 69.0051 13.8683 69.1142 13.7765C69.2233 13.6847 69.3128 13.5719 69.3772 13.4448C69.4417 13.3178 69.4799 13.1792 69.4896 13.0371Z" fill="white"/>
<path d="M71.5498 12.4426C71.5498 11.0197 72.2833 10.1183 73.4242 10.1183C73.7064 10.1054 73.9865 10.1728 74.2317 10.3127C74.4769 10.4526 74.6771 10.6592 74.8089 10.9083H74.8755V8.43521H75.7667V14.696H74.9127V13.9845H74.8422C74.7002 14.232 74.493 14.436 74.2431 14.5745C73.9931 14.713 73.7099 14.7807 73.4242 14.7702C72.2755 14.7702 71.5498 13.8688 71.5498 12.4426ZM72.4704 12.4426C72.4704 13.3976 72.9218 13.9723 73.6769 13.9723C74.428 13.9723 74.8922 13.3893 74.8922 12.4465C74.8922 11.508 74.4231 10.9167 73.6769 10.9167C72.9267 10.9167 72.4704 11.4953 72.4704 12.4426H72.4704Z" fill="white"/>
<path d="M79.4534 12.4419C79.425 12.146 79.459 11.8474 79.5531 11.5653C79.6472 11.2833 79.7994 11.0239 79.9999 10.8039C80.2004 10.5839 80.4448 10.4082 80.7174 10.2879C80.99 10.1676 81.2848 10.1055 81.5829 10.1055C81.881 10.1055 82.1758 10.1676 82.4485 10.2879C82.7211 10.4082 82.9655 10.5839 83.166 10.8039C83.3665 11.0239 83.5186 11.2833 83.6127 11.5653C83.7069 11.8474 83.7408 12.146 83.7124 12.4419C83.7413 12.7381 83.7078 13.0371 83.6139 13.3196C83.5201 13.6021 83.368 13.8619 83.1674 14.0824C82.9669 14.3028 82.7223 14.4789 82.4494 14.5994C82.1765 14.72 81.8814 14.7822 81.5829 14.7822C81.2845 14.7822 80.9893 14.72 80.7164 14.5994C80.4435 14.4789 80.199 14.3028 79.9984 14.0824C79.7978 13.8619 79.6458 13.6021 79.5519 13.3196C79.458 13.0371 79.4245 12.7381 79.4534 12.4419ZM82.7958 12.4419C82.7958 11.4658 82.3561 10.895 81.5844 10.895C80.8098 10.895 80.374 11.4658 80.374 12.4419C80.374 13.4258 80.8098 13.9922 81.5844 13.9922C82.3561 13.9922 82.7958 13.4219 82.7958 12.4419Z" fill="white"/>
<path d="M84.9082 10.1918H85.7661V10.9072H85.8327C85.9456 10.6503 86.1362 10.4349 86.3777 10.2911C86.6193 10.1473 86.8998 10.0822 87.1802 10.1049C87.3999 10.0885 87.6205 10.1215 87.8257 10.2016C88.0309 10.2817 88.2153 10.4068 88.3654 10.5676C88.5155 10.7285 88.6274 10.9209 88.6928 11.1308C88.7582 11.3406 88.7754 11.5624 88.7432 11.7797V14.6947H87.852V12.0029C87.852 11.2793 87.5367 10.9194 86.8776 10.9194C86.7284 10.9125 86.5795 10.9378 86.441 10.9936C86.3026 11.0494 86.1779 11.1345 86.0755 11.2428C85.9731 11.3512 85.8954 11.4804 85.8477 11.6215C85.8001 11.7627 85.7836 11.9124 85.7994 12.0605V14.6948H84.9082V10.1918Z" fill="white"/>
<path d="M93.7799 9.07205V10.2137H94.7582V10.9622H93.7799V13.2776C93.7799 13.7493 93.9748 13.9558 94.4184 13.9558C94.532 13.9555 94.6454 13.9486 94.7582 13.9353V14.6756C94.5982 14.7041 94.436 14.7193 94.2735 14.721C93.2824 14.721 92.8877 14.3733 92.8877 13.5052V10.9622H92.1709V10.2136H92.8877V9.07205H93.7799Z" fill="white"/>
<path d="M95.9736 8.43521H96.857V10.9167H96.9275C97.0459 10.6573 97.2417 10.4407 97.4881 10.2964C97.7345 10.1521 98.0195 10.087 98.3043 10.11C98.5229 10.0982 98.7414 10.1346 98.9442 10.2166C99.1471 10.2986 99.3293 10.4243 99.4778 10.5846C99.6263 10.745 99.7376 10.936 99.8035 11.1442C99.8695 11.3523 99.8886 11.5724 99.8595 11.7887V14.696H98.9674V12.008C98.9674 11.2887 98.6315 10.9245 98.0018 10.9245C97.8486 10.9119 97.6946 10.9329 97.5504 10.986C97.4062 11.039 97.2754 11.1229 97.1671 11.2316C97.0588 11.3403 96.9756 11.4714 96.9234 11.6155C96.8712 11.7596 96.8512 11.9134 96.8648 12.0661V14.6959H95.9737L95.9736 8.43521Z" fill="white"/>
<path d="M105.056 13.4796C104.935 13.8911 104.673 14.2471 104.315 14.4853C103.957 14.7234 103.527 14.8286 103.099 14.7823C102.802 14.7902 102.506 14.7333 102.233 14.6158C101.96 14.4983 101.715 14.3229 101.517 14.1017C101.318 13.8806 101.171 13.619 101.084 13.3352C100.997 13.0514 100.973 12.7521 101.013 12.4581C100.974 12.1632 100.998 11.8633 101.085 11.5786C101.172 11.294 101.319 11.0312 101.516 10.8081C101.714 10.585 101.957 10.4069 102.229 10.2857C102.502 10.1645 102.797 10.103 103.095 10.1056C104.352 10.1056 105.11 10.9616 105.11 12.3756V12.6857H101.921V12.7355C101.907 12.9007 101.928 13.067 101.982 13.2238C102.037 13.3805 102.123 13.5242 102.236 13.6457C102.35 13.7672 102.487 13.8637 102.64 13.9291C102.793 13.9945 102.958 14.0273 103.124 14.0255C103.337 14.051 103.553 14.0127 103.744 13.9155C103.936 13.8183 104.094 13.6665 104.198 13.4796L105.056 13.4796ZM101.921 12.0284H104.202C104.213 11.8773 104.193 11.7255 104.142 11.5828C104.09 11.4401 104.01 11.3096 103.905 11.1997C103.801 11.0899 103.674 11.0031 103.534 10.9449C103.393 10.8867 103.242 10.8585 103.09 10.8619C102.936 10.86 102.783 10.8889 102.641 10.9468C102.498 11.0047 102.368 11.0906 102.259 11.1993C102.15 11.308 102.064 11.4374 102.006 11.5798C101.948 11.7222 101.919 11.8747 101.921 12.0284H101.921Z" fill="white"/>
</g>
<defs>
<clipPath id="clip0_12743_62891">
<rect width="120" height="40" fill="white"/>
</clipPath>
</defs>
</svg>
