<svg width="135" height="40" viewBox="0 0 135 40" fill="none" xmlns="http://www.w3.org/2000/svg">
<g clip-path="url(#clip0_12743_62926)">
<path d="M130 40.0022H5C2.25 40.0022 0 37.7522 0 35.0022V5.00226C0 2.25226 2.25 0.0022583 5 0.0022583H130C132.75 0.0022583 135 2.25226 135 5.00226V35.0022C135 37.7522 132.75 40.0022 130 40.0022Z" fill="black"/>
<path d="M130 0.802058C132.316 0.802058 134.2 2.68626 134.2 5.00226V35.0022C134.2 37.3181 132.316 39.2024 130 39.2024H5C2.684 39.2024 0.8 37.3181 0.8 35.0022V5.00226C0.8 2.68626 2.684 0.802058 5 0.802058H130ZM130 0.0022583H5C2.25 0.0022583 0 2.25226 0 5.00226V35.0022C0 37.7522 2.25 40.0022 5 40.0022H130C132.75 40.0022 135 37.7522 135 35.0022V5.00226C135 2.25226 132.75 0.0022583 130 0.0022583Z" fill="#A6A6A6"/>
<path d="M47.418 10.2444C47.418 11.0823 47.1699 11.7497 46.6728 12.2473C46.1084 12.8391 45.373 13.135 44.4687 13.135C43.6025 13.135 42.8662 12.8352 42.2607 12.2346C41.6543 11.634 41.3516 10.8894 41.3516 10.0012C41.3516 9.11251 41.6543 8.36841 42.2607 7.76781C42.8662 7.16721 43.6025 6.86691 44.4687 6.86691C44.8984 6.86691 45.3096 6.95091 45.7002 7.11841C46.0908 7.28641 46.4043 7.50951 46.6387 7.78881L46.1113 8.31661C45.7139 7.84201 45.167 7.60471 44.4687 7.60471C43.8369 7.60471 43.291 7.82641 42.8301 8.27071C42.3691 8.71511 42.1387 9.29171 42.1387 10.0012C42.1387 10.7107 42.3691 11.2873 42.8301 11.7317C43.291 12.176 43.8369 12.3977 44.4687 12.3977C45.1387 12.3977 45.6973 12.1745 46.1445 11.7278C46.4346 11.4367 46.6025 11.032 46.6474 10.5124H44.4687V9.79171H47.376C47.4043 9.94851 47.418 10.0989 47.418 10.2444Z" fill="white" stroke="white" stroke-width="0.172361" stroke-miterlimit="10"/>
<path d="M52.0254 7.73791H49.293V9.64021H51.7569V10.361H49.293V12.2633H52.0254V13.0006H48.5225V7.00061H52.0254V7.73791Z" fill="white" stroke="white" stroke-width="0.172361" stroke-miterlimit="10"/>
<path d="M55.2774 13.0006H54.5059V7.73791H52.8301V7.00061H56.9532V7.73791H55.2774V13.0006Z" fill="white" stroke="white" stroke-width="0.172361" stroke-miterlimit="10"/>
<path d="M59.9375 13.0006V7.00061H60.708V13.0006H59.9375Z" fill="white" stroke="white" stroke-width="0.172361" stroke-miterlimit="10"/>
<path d="M64.1279 13.0006H63.3564V7.73791H61.6807V7.00061H65.8037V7.73791H64.1279V13.0006Z" fill="white" stroke="white" stroke-width="0.172361" stroke-miterlimit="10"/>
<path d="M73.6084 12.2258C73.0185 12.8323 72.2851 13.135 71.4082 13.135C70.5312 13.135 69.7978 12.8323 69.209 12.2258C68.6191 11.6199 68.3252 10.8782 68.3252 10.0012C68.3252 9.12421 68.6191 8.38251 69.209 7.77661C69.7978 7.17011 70.5312 6.86691 71.4082 6.86691C72.2803 6.86691 73.0117 7.17161 73.6045 7.78051C74.1963 8.38941 74.4922 9.12961 74.4922 10.0012C74.4922 10.8782 74.1972 11.6199 73.6084 12.2258ZM69.7783 11.7234C70.2226 12.1731 70.7656 12.3977 71.4082 12.3977C72.0508 12.3977 72.5947 12.1731 73.0381 11.7234C73.4824 11.2737 73.7051 10.6994 73.7051 10.0012C73.7051 9.30301 73.4824 8.72871 73.0381 8.27901C72.5947 7.82931 72.0508 7.60471 71.4082 7.60471C70.7656 7.60471 70.2226 7.82931 69.7783 8.27901C69.3349 8.72871 69.1123 9.30301 69.1123 10.0012C69.1123 10.6994 69.3349 11.2737 69.7783 11.7234Z" fill="white" stroke="white" stroke-width="0.172361" stroke-miterlimit="10"/>
<path d="M75.5732 13.0006V7.00061H76.5117L79.4277 11.6681H79.4609L79.4277 10.5118V7.00061H80.1992V13.0006H79.3945L76.3437 8.10701H76.3105L76.3437 9.26331V13.0006H75.5732Z" fill="white" stroke="white" stroke-width="0.172361" stroke-miterlimit="10"/>
<path d="M68.1372 21.7538C65.785 21.7538 63.8679 23.542 63.8679 26.0069C63.8679 28.4557 65.785 30.2601 68.1372 30.2601C70.4893 30.2601 72.4065 28.4557 72.4065 26.0069C72.4065 23.542 70.4893 21.7538 68.1372 21.7538ZM68.1372 28.5846C66.8484 28.5846 65.7367 27.5213 65.7367 26.0069C65.7367 24.4764 66.8484 23.4293 68.1372 23.4293C69.426 23.4293 70.5376 24.4764 70.5376 26.0069C70.5376 27.5213 69.426 28.5846 68.1372 28.5846ZM58.8238 21.7538C56.4716 21.7538 54.5545 23.542 54.5545 26.0069C54.5545 28.4557 56.4716 30.2601 58.8238 30.2601C61.1759 30.2601 63.093 28.4557 63.093 26.0069C63.093 23.542 61.1759 21.7538 58.8238 21.7538ZM58.8238 28.5846C57.5349 28.5846 56.4233 27.5213 56.4233 26.0069C56.4233 24.4764 57.5349 23.4293 58.8238 23.4293C60.1126 23.4293 61.2242 24.4764 61.2242 26.0069C61.2242 27.5213 60.1126 28.5846 58.8238 28.5846ZM47.745 23.0588V24.8631H52.0627C51.9337 25.8781 51.5955 26.6191 51.0799 27.1347C50.4516 27.763 49.4688 28.4557 47.745 28.4557C45.0868 28.4557 43.0086 26.313 43.0086 23.6548C43.0086 20.9966 45.0868 18.8539 47.745 18.8539C49.1789 18.8539 50.2261 19.4178 50.9994 20.1427L52.2721 18.87C51.1927 17.839 49.7589 17.0495 47.745 17.0495C44.104 17.0495 41.043 20.0139 41.043 23.6548C41.043 27.2958 44.104 30.2601 47.745 30.2601C49.7105 30.2601 51.1927 29.6157 52.3526 28.4074C53.5448 27.2152 53.9154 25.5398 53.9154 24.1865C53.9154 23.7676 53.8832 23.381 53.8186 23.0588H47.745ZM93.0533 24.4603C92.6988 23.5098 91.6194 21.7538 89.4123 21.7538C87.2213 21.7538 85.4009 23.4776 85.4009 26.0069C85.4009 28.3913 87.2052 30.2601 89.6218 30.2601C91.571 30.2601 92.6988 29.0679 93.166 28.3752L91.7161 27.4086C91.2328 28.1174 90.5723 28.5846 89.6218 28.5846C88.6712 28.5846 87.9946 28.1496 87.5596 27.2958L93.2467 24.9437L93.0533 24.4603ZM87.2536 25.8781C87.2052 24.2348 88.5263 23.3971 89.4767 23.3971C90.2179 23.3971 90.8461 23.7676 91.0556 24.2993L87.2536 25.8781ZM82.6298 30.0023H84.4986V17.5007H82.6298V30.0023ZM79.5688 22.7043H79.5044C79.0855 22.2049 78.28 21.7538 77.265 21.7538C75.1385 21.7538 73.1891 23.6226 73.1891 26.023C73.1891 28.4074 75.1385 30.2601 77.265 30.2601C78.28 30.2601 79.0855 29.809 79.5044 29.2935H79.5688V29.9057C79.5688 31.5329 78.6989 32.4028 77.2972 32.4028C76.1535 32.4028 75.4445 31.5812 75.1546 30.8884L73.5274 31.5651C73.9946 32.6928 75.2351 34.0783 77.2972 34.0783C79.4883 34.0783 81.341 32.7895 81.341 29.6479V22.0115H79.5688V22.7043ZM77.4262 28.5846C76.1374 28.5846 75.0579 27.5052 75.0579 26.023C75.0579 24.5248 76.1374 23.4293 77.4262 23.4293C78.6989 23.4293 79.6977 24.5248 79.6977 26.023C79.6977 27.5052 78.6989 28.5846 77.4262 28.5846ZM101.807 17.5009H97.3359V30.0023H99.2016V25.2659H101.807C103.876 25.2659 105.908 23.7686 105.908 21.3834C105.908 18.9982 103.876 17.5009 101.807 17.5009ZM101.855 23.5261H99.2016V19.2408H101.855C103.25 19.2408 104.043 20.3959 104.043 21.3834C104.043 22.3523 103.25 23.5261 101.855 23.5261ZM113.387 21.7308C112.036 21.7308 110.637 22.3259 110.058 23.6447L111.714 24.3363C112.068 23.6447 112.728 23.4195 113.419 23.4195C114.384 23.4195 115.365 23.9985 115.381 25.0278V25.1565C115.044 24.9635 114.32 24.674 113.435 24.674C111.65 24.674 109.833 25.6551 109.833 27.4886C109.833 29.1612 111.296 30.2388 112.937 30.2388C114.191 30.2388 114.883 29.6759 115.317 29.0165H115.381V29.9815H117.183V25.1887C117.183 22.9692 115.526 21.7308 113.387 21.7308ZM113.162 28.5822C112.551 28.5822 111.698 28.2767 111.698 27.5207C111.698 26.5558 112.76 26.1858 113.677 26.1858C114.497 26.1858 114.883 26.3628 115.381 26.604C115.237 27.762 114.239 28.5822 113.162 28.5822ZM123.745 22.0042L121.606 27.4242H121.541L119.322 22.0042H117.311L120.641 29.5794L118.743 33.7932H120.689L125.819 22.0042H123.745ZM106.938 30.0023H108.803V17.5009H106.938V30.0023Z" fill="white"/>
<path d="M10.4364 7.5401C10.1456 7.8479 9.97363 8.3258 9.97363 8.945V31.0611C9.97363 31.6808 10.1456 32.1582 10.4364 32.466L10.5104 32.5381L22.8994 20.1492V20.0031V19.8569L10.5104 7.4675L10.4364 7.5401Z" fill="url(#paint0_linear_12743_62926)"/>
<path d="M27.0278 24.2819L22.8984 20.1505V20.0044V19.8582L27.0288 15.7278L27.1219 15.7809L32.0147 18.561C33.4123 19.355 33.4123 20.6542 32.0147 21.4487L27.1219 24.2288L27.0278 24.2819Z" fill="url(#paint1_linear_12743_62926)"/>
<path d="M27.122 24.2264L22.8985 20.0025L10.4355 32.4654C10.8963 32.9531 11.6567 33.0135 12.5136 32.5268L27.122 24.2264Z" fill="url(#paint2_linear_12743_62926)"/>
<path d="M27.123 15.7799L12.5146 7.47953C11.6577 6.99283 10.8973 7.05323 10.4365 7.54093L22.8995 20.0039L27.123 15.7799Z" fill="url(#paint3_linear_12743_62926)"/>
<path opacity="0.2" d="M27.0299 24.1362L12.5146 32.3835C11.7026 32.8448 10.9767 32.8141 10.511 32.3942L10.4365 32.4687L10.5105 32.5408L10.511 32.5403C10.9767 32.9602 11.7026 32.9914 12.5146 32.5296L27.123 24.2292L27.0299 24.1362Z" fill="black"/>
<path opacity="0.12" d="M10.4364 32.3225C10.1456 32.0146 9.97363 31.5367 9.97363 30.9176V31.0637C9.97363 31.6829 10.1456 32.1607 10.4364 32.4686L10.5109 32.3941L10.4364 32.3225Z" fill="black"/>
<path opacity="0.12" d="M32.0152 21.3019L27.0293 24.1351L27.1224 24.2281L32.0152 21.448C32.7138 21.051 33.0635 20.5278 33.0635 20.0046C33.0046 20.4777 32.649 20.9419 32.0152 21.3019Z" fill="black"/>
<path opacity="0.25" d="M12.5145 7.62612L32.0157 18.7061C32.6495 19.0661 33.0051 19.5299 33.064 20.0039C33.0645 19.4807 32.7147 18.957 32.0157 18.56L12.5145 7.48002C11.1169 6.68592 9.97363 7.34552 9.97363 8.94632V9.09242C9.97363 7.49172 11.1169 6.83212 12.5145 7.62612Z" fill="white"/>
</g>
<defs>
<linearGradient id="paint0_linear_12743_62926" x1="21.8008" y1="8.71181" x2="5.01837" y2="25.4942" gradientUnits="userSpaceOnUse">
<stop stop-color="#00A0FF"/>
<stop offset="0.0065745" stop-color="#00A1FF"/>
<stop offset="0.2601" stop-color="#00BEFF"/>
<stop offset="0.5122" stop-color="#00D2FF"/>
<stop offset="0.7604" stop-color="#00DFFF"/>
<stop offset="1" stop-color="#00E3FF"/>
</linearGradient>
<linearGradient id="paint1_linear_12743_62926" x1="33.8344" y1="20.0049" x2="9.63752" y2="20.0049" gradientUnits="userSpaceOnUse">
<stop stop-color="#FFE000"/>
<stop offset="0.4087" stop-color="#FFBD00"/>
<stop offset="0.7754" stop-color="#FFA500"/>
<stop offset="1" stop-color="#FF9C00"/>
</linearGradient>
<linearGradient id="paint2_linear_12743_62926" x1="24.8271" y1="22.2976" x2="2.06882" y2="45.0559" gradientUnits="userSpaceOnUse">
<stop stop-color="#FF3A44"/>
<stop offset="1" stop-color="#C31162"/>
</linearGradient>
<linearGradient id="paint3_linear_12743_62926" x1="7.29845" y1="0.179102" x2="17.461" y2="10.3416" gradientUnits="userSpaceOnUse">
<stop stop-color="#32A071"/>
<stop offset="0.0685" stop-color="#2DA771"/>
<stop offset="0.4762" stop-color="#15CF74"/>
<stop offset="0.8009" stop-color="#06E775"/>
<stop offset="1" stop-color="#00F076"/>
</linearGradient>
<clipPath id="clip0_12743_62926">
<rect width="135" height="40" fill="white"/>
</clipPath>
</defs>
</svg>
